<?xml version="1.0" encoding="utf-8"?>
<!-- Generator: Adobe Illustrator 28.0.0, SVG Export Plug-In . SVG Version: 6.00 Build 0)  -->
<svg version="1.1" id="Capa_1" xmlns="http://www.w3.org/2000/svg" xmlns:xlink="http://www.w3.org/1999/xlink" x="0px" y="0px"
	 viewBox="0 0 2376 2500" style="enable-background:new 0 0 2376 2500;" xml:space="preserve">
<style type="text/css">
	.st0{fill:#E32286;}
	.st1{fill:url(#SVGID_1_);}
	.st2{fill:url(#SVGID_00000017491078355357557490000007413694291730616707_);}
	.st3{fill:url(#SVGID_00000135649695730879341770000005265962389075048369_);}
</style>
<path class="st0" d="M665.4,1376.8c-23.5-73.2-30.3-150.5-16.7-230.1c5.9-33,14.9-64.6,24.9-96.7c0,0,62.4-204.8,273.5-298.4
	c0,0,72.8-38.4,182.2-41.1c0,0-14.9-14.5-24.4-20.8c-51.5-34.4-128.4-45.7-174.9,2.7c-14,14.5-25.8,30.3-38.9,44.8
	c-14.9,16.3-33,29.8-53.8,37.5c-18.1,6.8-36.2,5.4-54.7,8.6c-19,3.2-38.4,9.9-53.8,22.2c-16.7,13.6-23.5,31.6-25.3,52.4
	c-1.8,16.3-1.4,33-2.3,49.3c-2.3,47.9-17.6,61.5-52,88.2c-14.5,10.8-26.7,25.3-35.7,40.7c-27.1,47.9,16.3,97.6,18.5,146
	c0.5,9.9-0.5,19.9-4.1,29.4c-3.6,10.4-10.8,17.2-16.7,25.8c-8.1,11.3-13.6,24.9-11.3,38.9c2.3,14,9.5,27.1,16.3,39.3
	c13.1,21.7,29.4,41.1,46.6,59.7C663.6,1375,664.5,1375.9,665.4,1376.8"/>
<linearGradient id="SVGID_1_" gradientUnits="userSpaceOnUse" x1="299.0898" y1="1674.7303" x2="361.3078" y2="1740.9193" gradientTransform="matrix(9.0411 0 0 -9.0411 -1930.6674 16845.5254)">
	<stop  offset="0" style="stop-color:#E01D84"/>
	<stop  offset="0.401" style="stop-color:#DF1D85"/>
	<stop  offset="0.77" style="stop-color:#932C87"/>
	<stop  offset="1" style="stop-color:#5D2F88"/>
</linearGradient>
<path class="st1" d="M1527.9,1550.4c104-45.2,148.3-123.4,148.3-123.4c97.2-132.5,64.2-272.1,64.2-272.1
	c-61.9,134.7-118.4,171.8-118.4,171.8c152.3-231.9,0.9-372,0.9-372c61.9,132-20.3,292.9-20.3,292.9
	c-69.2,145.6-167.3,197.5-167.3,197.5c109.4,20.3,189.9-53.3,189.9-53.3c-156.9,169.5-326.8,161.4-326.8,161.4
	c71.4,80,178.6,73.2,178.6,73.2c-140.1,33-271.7-13.6-379.7-103.5c-20.3-16.7-39.8-34.8-57.9-54.2c0,0-16.3-17.2-19.4-21.7l-0.5-0.5
	c-2.3,83.6,85,161.4,85,161.4c-109.4-45.2-159.6-143.3-159.6-143.3s-73.7-125.7-20.3-269s214.7-174,214.7-174
	c133.4,64.6,246.4,85,246.4,85c238.2,39.8,224.7-76.8,224.7-76.8c2.3-100.4-149.2-207-149.2-207c-269.9-200.3-514-71-514-71
	C735.9,845.2,673.5,1050,673.5,1050c-9.9,32.1-19,63.7-24.9,96.7C625.6,1281,660.4,1408,735.9,1521c117.5,175.4,308.3,236,308.3,236
	c282.5,95.8,475.6-45.2,475.6-45.2c177.7-122.1,213.4-263.1,213.4-263.1C1589.8,1560.8,1527.9,1550.4,1527.9,1550.4L1527.9,1550.4z
	 M1307.3,890.8c13.6,0,24.4,10.8,24.4,24.4s-10.8,24.4-24.4,24.4s-24.4-10.8-24.4-24.4S1293.7,890.8,1307.3,890.8z"/>
<radialGradient id="SVGID_00000005960210269479766990000012889888403095518629_" cx="367.4505" cy="1767.8767" r="60.791" gradientTransform="matrix(9.0411 2.160822e-02 1.808219e-02 -7.5602 -1961.5879 14304.417)" gradientUnits="userSpaceOnUse">
	<stop  offset="0" style="stop-color:#E01D84"/>
	<stop  offset="0.139" style="stop-color:#DE1E85"/>
	<stop  offset="0.285" style="stop-color:#D62085"/>
	<stop  offset="0.434" style="stop-color:#C92386"/>
	<stop  offset="0.586" style="stop-color:#B72786"/>
	<stop  offset="0.739" style="stop-color:#9D2B87"/>
	<stop  offset="0.891" style="stop-color:#7C2E88"/>
	<stop  offset="1" style="stop-color:#5D2F88"/>
</radialGradient>
<path style="fill:url(#SVGID_00000005960210269479766990000012889888403095518629_);" d="M1609.7,1029.2
	c2.3-100.4-149.2-207-149.2-207c-269.9-199.8-514-70.5-514-70.5C735.4,845.2,673.1,1050,673.1,1050c-12.2,34.8-23.1,88.2-23.1,88.2
	c-13.1,66.9-7.2,128.8-7.2,128.8c5.4,59.2,18.5,99,18.5,99c13.6,42.5,19.9,55.6,19.9,55.6c-0.5-1.4-2.7-11.3-2.7-11.3
	s-19-91.3-1.4-179c0,0,15.4-91.3,77.8-161.8c0,0,101.3-144.2,289.8-87.7c0,0,40.7,14.5,54.7,21.7c14,6.8,38.4,17.2,38.4,17.2
	c133.4,64.6,246.4,85,246.4,85C1623.3,1145.8,1609.7,1029.2,1609.7,1029.2z M1307.3,940.1c-13.6,0-24.4-10.8-24.4-24.4
	s10.8-24.4,24.4-24.4s24.4,10.8,24.4,24.4S1320.9,940.1,1307.3,940.1z"/>
<linearGradient id="SVGID_00000101806653318564144970000005066725258956034473_" gradientUnits="userSpaceOnUse" x1="313.9445" y1="1767.4146" x2="340.9991" y2="1767.4146" gradientTransform="matrix(9.0411 0 0 -9.0411 -1930.6674 16845.5254)">
	<stop  offset="0" style="stop-color:#E01D84"/>
	<stop  offset="0.238" style="stop-color:#DA1E85"/>
	<stop  offset="0.658" style="stop-color:#C72085"/>
	<stop  offset="0.999" style="stop-color:#B52284"/>
</linearGradient>
<path style="fill:url(#SVGID_00000101806653318564144970000005066725258956034473_);" d="M1152.7,847.4l-154.2-47.9
	c-0.9,0-5.4-2.3-13.6,0c0,0-90.9,23.1-75,72.8c0,0,9.5,31.2,35.3,61.5l169.5-8.1L1152.7,847.4z"/>
</svg>
