<?xml version="1.0" encoding="utf-8"?>
<!-- Generator: Adobe Illustrator 28.0.0, SVG Export Plug-In . SVG Version: 6.00 Build 0)  -->
<svg version="1.1" id="Capa_1" xmlns="http://www.w3.org/2000/svg" xmlns:xlink="http://www.w3.org/1999/xlink" x="0px" y="0px"
	 viewBox="0 0 2500 2500" style="enable-background:new 0 0 2500 2500;" xml:space="preserve">
<style type="text/css">
	.st0{fill:#F0DB4F;}
	.st1{fill:#323330;}
</style>
<path class="st0" d="M625,625h1250v1250H625V625z"/>
<path class="st1" d="M1772.7,1576.9c-9.1-57-46.3-104.9-156.5-149.6c-38.3-17.6-80.9-30.2-93.6-59.2c-4.5-16.9-5.1-26.4-2.3-36.6
	c8.2-33.2,47.8-43.5,79.1-34c20.2,6.8,39.3,22.3,50.9,47.2c53.9-34.9,53.8-34.7,91.5-58.7c-13.8-21.4-21.2-31.3-30.2-40.4
	c-32.4-36.2-76.6-54.9-147.3-53.5c-12.2,1.5-24.6,3.2-36.8,4.8c-35.3,8.9-68.9,27.4-88.6,52.3c-59.2,67.1-42.3,184.6,29.7,233
	c70.9,53.2,175.1,65.4,188.5,115.1c13,61-44.8,80.7-102.2,73.7c-42.3-8.8-65.8-30.3-91.3-69.4c-46.8,27.1-46.8,27.1-94.9,54.8
	c11.4,25,23.4,36.2,42.5,57.9c90.5,91.8,317.1,87.3,357.8-51.7C1770.6,1657.8,1781.5,1626,1772.7,1576.9z M1304.5,1199.5h-116.9
	c0,101-0.5,201.3-0.5,302.3c0,64.3,3.3,123.2-7.1,141.3c-17.1,35.5-61.4,31.1-81.6,24.2c-20.6-10.1-31-24.5-43.1-44.8
	c-3.3-5.8-5.8-10.3-6.7-10.7c-31.7,19.4-63.3,38.9-95.1,58.2c15.8,32.4,39.1,60.6,68.9,78.9c44.6,26.7,104.4,34.9,167.1,20.6
	c40.8-11.9,75.9-36.5,94.3-73.9c26.6-49.1,20.9-108.5,20.7-174.2C1305.1,1414.2,1304.5,1307,1304.5,1199.5L1304.5,1199.5z"/>
</svg>
